<svg width="1391" height="1024" viewBox="0 0 1391 1024" fill="none" xmlns="http://www.w3.org/2000/svg">
<line x1="139.979" y1="532.803" x2="1804.94" y2="545.767" stroke="#68F3A8"/>
<line x1="163.926" y1="407.563" x2="2322.48" y2="442.628" stroke="#68F3A8"/>
<line x1="139.983" y1="309.949" x2="2302.22" y2="344.913" stroke="#68F3A8"/>
<line x1="16.5798" y1="608.316" x2="1681.54" y2="621.28" stroke="#68F3A8"/>
<line x1="71.8332" y1="676.461" x2="2537.96" y2="696.792" stroke="#68F3A8"/>
<line x1="189.709" y1="236.278" x2="2401.67" y2="263.977" stroke="#68F3A8"/>
<line x1="0.0038931" y1="175.5" x2="1664.96" y2="188.464" stroke="#68F3A8"/>
<line x1="40.5229" y1="755.657" x2="1705.48" y2="768.621" stroke="#68F3A8"/>
<line x1="305.737" y1="834.854" x2="2322.47" y2="848.235" stroke="#68F3A8"/>
<line x1="1041.05" y1="-945.37" x2="770.419" y2="1171.53" stroke="#68F3A8"/>
<line x1="1196.78" y1="-895.779" x2="822.682" y2="1845.91" stroke="#68F3A8"/>
<line x1="1324.66" y1="-911.35" x2="950.129" y2="1835.04" stroke="#68F3A8"/>
<line x1="963.785" y1="-1113.94" x2="693.155" y2="1002.96" stroke="#68F3A8"/>
<line x1="868.628" y1="-1054.02" x2="466.334" y2="2081.34" stroke="#68F3A8"/>
<line x1="1410.83" y1="-836.822" x2="1037.95" y2="1973.96" stroke="#68F3A8"/>
<line x1="1517.13" y1="-1068.97" x2="1246.5" y2="1047.93" stroke="#68F3A8"/>
<line x1="772.62" y1="-1105.96" x2="501.989" y2="1010.94" stroke="#68F3A8"/>
<line x1="631.351" y1="-780.524" x2="306.496" y2="1783.99" stroke="#68F3A8"/>
</svg>
